Coordinates
version=1
nRows=44
nColumns=19
inDegrees=yes

Units are S.I. units (second, meters, Newtons, ...)
Angles are in degrees.

endheader
time	1_Force_X	1_Force_Y	1_Force_Z	1_Moment_X	1_Moment_Y	1_Moment_Z	1_COP_X	1_COP_Y	1_COP_Z	2_Force_X	2_Force_Y	2_Force_Z	2_Moment_X	2_Moment_Y	2_Moment_Z	2_COP_X	2_COP_Y	2_COP_Z
0.0075	37.506	-5.993	3.410	-1.082	0.395	-0.165	311.932	0.000	-154.691	-19.221	61.497	13.975	-8.222	3.598	6.215	115.750	0.000	122.783
0.0100	37.508	-4.778	3.583	-1.147	0.368	-0.041	365.317	0.000	-206.096	-19.439	61.324	13.799	-8.223	3.579	6.250	116.807	0.000	123.273
0.0125	37.505	-5.821	3.497	-1.280	0.414	-0.130	315.052	0.000	-192.723	-19.479	62.182	13.537	-8.133	3.597	6.198	114.391	0.000	120.316
0.0150	37.859	-5.476	3.406	-1.191	0.396	-0.059	324.957	0.000	-189.379	-19.481	61.840	13.714	-8.332	3.607	6.319	116.989	0.000	124.068
0.0175	37.813	-5.473	3.541	-1.081	0.423	-0.165	344.029	0.000	-168.218	-19.264	61.841	13.844	-8.177	3.616	6.284	116.261	0.000	121.464
0.0200	37.859	-5.469	3.851	-1.146	0.498	-0.112	335.120	0.000	-177.700	-19.480	62.356	13.758	-8.242	3.634	6.249	114.904	0.000	121.569
0.0225	37.158	-4.072	3.631	-0.924	0.406	0.116	386.006	0.000	-186.457	-19.740	62.179	13.187	-8.222	3.532	6.354	117.111	0.000	122.021
0.0250	37.553	-4.597	3.497	-0.946	0.424	0.098	349.735	0.000	-171.323	-19.523	63.040	13.364	-8.133	3.551	6.337	115.078	0.000	118.793
0.0275	37.555	-5.113	3.632	-0.835	0.442	0.081	317.952	0.000	-131.166	-19.698	63.212	13.451	-8.199	3.532	6.406	115.992	0.000	119.455
0.0300	37.335	-5.287	3.545	-0.902	0.424	0.081	305.599	0.000	-140.209	-19.740	63.554	13.322	-8.265	3.532	6.285	113.488	0.000	119.945
0.0325	37.730	-4.944	3.498	-0.858	0.424	0.081	330.412	0.000	-141.422	-19.743	63.040	13.537	-8.177	3.514	6.389	116.065	0.000	119.379
0.0350	37.730	-6.164	3.676	-1.015	0.405	-0.112	296.404	0.000	-137.600	-19.305	62.010	13.627	-8.244	3.588	6.146	113.740	0.000	122.375
0.0375	37.638	-5.815	3.632	-1.146	0.498	-0.112	313.500	0.000	-168.833	-19.305	62.182	13.583	-8.199	3.597	6.215	114.542	0.000	121.347
0.0400	37.591	-5.299	3.408	-1.191	0.452	-0.130	346.825	0.000	-195.648	-19.437	62.184	13.801	-8.177	3.625	6.197	114.352	0.000	120.818
0.0425	37.770	-4.424	3.586	-0.880	0.470	-0.042	397.376	0.000	-162.205	-19.349	63.209	13.321	-8.133	3.486	6.424	116.022	0.000	118.518
0.0450	37.818	-4.776	3.716	-1.036	0.396	0.029	353.808	0.000	-181.592	-19.478	63.897	13.280	-8.221	3.523	6.320	113.236	0.000	118.630
0.0475	37.683	-4.428	3.451	-1.057	0.424	0.064	372.287	0.000	-203.403	-19.696	62.697	13.231	-8.132	3.588	6.389	116.662	0.000	119.535
0.0500	37.725	-3.907	3.450	-1.057	0.452	0.029	431.286	0.000	-230.458	-19.479	62.695	13.319	-8.111	3.541	6.337	115.677	0.000	119.138
0.0525	37.816	-4.950	3.717	-1.014	0.405	-0.077	362.627	0.000	-170.861	-19.740	63.038	13.233	-8.243	3.532	6.372	115.792	0.000	120.650
0.0550	37.596	-4.421	3.763	-0.946	0.480	0.028	380.003	0.000	-175.380	-19.699	62.179	13.448	-8.179	3.514	6.302	116.239	0.000	121.123
0.0575	38.299	-5.301	3.627	-1.080	0.451	-0.077	342.795	0.000	-172.764	-19.436	62.355	13.627	-8.265	3.616	6.267	115.155	0.000	122.028
0.0600	38.297	-4.431	3.626	-1.079	0.498	-0.024	398.133	0.000	-206.430	-19.478	62.694	13.233	-8.244	3.532	6.337	115.681	0.000	121.321
0.0625	37.899	-3.910	3.406	-1.013	0.461	-0.077	459.961	0.000	-219.682	-19.391	62.694	13.233	-8.156	3.514	6.337	115.619	0.000	119.919
0.0650	38.077	-4.430	3.538	-1.013	0.461	-0.042	399.902	0.000	-192.491	-19.479	62.350	13.232	-8.245	3.505	6.424	117.714	0.000	122.007
0.0675	38.471	-5.477	3.406	-1.146	0.517	-0.112	339.714	0.000	-181.098	-19.438	61.840	13.798	-8.045	3.597	6.232	115.550	0.000	119.365
0.0700	37.813	-3.904	3.849	-1.035	0.508	-0.059	455.190	0.000	-220.349	-19.740	63.211	13.234	-8.331	3.569	6.371	115.474	0.000	121.700
0.0725	38.251	-5.652	3.362	-1.103	0.451	-0.217	345.994	0.000	-168.272	-19.439	62.701	14.021	-8.198	3.625	6.232	113.964	0.000	119.997
0.0750	38.427	-4.782	3.802	-1.169	0.517	-0.217	410.509	0.000	-208.406	-19.479	62.186	13.758	-8.263	3.699	6.180	114.096	0.000	122.242
0.0775	38.075	-4.081	3.716	-0.969	0.507	-0.130	455.626	0.000	-196.154	-19.653	63.382	13.233	-8.199	3.532	6.406	115.650	0.000	119.287
0.0800	38.032	-4.774	3.541	-0.969	0.517	-0.112	385.458	0.000	-169.293	-19.480	63.213	13.496	-8.220	3.560	6.389	115.556	0.000	119.760
0.0825	38.210	-4.780	3.715	-1.102	0.470	-0.094	382.981	0.000	-195.375	-19.652	62.696	13.275	-8.155	3.569	6.250	114.417	0.000	119.870
0.0850	38.294	-5.653	3.538	-1.236	0.488	-0.253	352.501	0.000	-190.311	-19.394	62.183	13.715	-8.310	3.588	6.284	115.723	0.000	123.026
0.0875	38.515	-4.963	3.579	-1.302	0.461	-0.182	389.273	0.000	-229.747	-19.569	62.184	13.888	-8.309	3.607	6.302	116.126	0.000	122.887
0.0900	38.342	-5.306	3.669	-1.148	0.423	-0.165	359.374	0.000	-184.977	-19.567	62.183	13.626	-8.265	3.607	6.250	115.291	0.000	122.376
0.0925	38.471	-5.824	3.363	-1.124	0.516	-0.165	328.516	0.000	-166.906	-19.307	61.495	13.623	-8.068	3.570	6.267	116.669	0.000	120.543
0.0950	38.470	-5.133	3.404	-1.257	0.498	-0.130	365.765	0.000	-214.863	-19.350	61.322	13.581	-8.245	3.570	6.285	117.313	0.000	123.801
0.0975	38.120	-4.779	3.495	-1.058	0.489	-0.112	385.904	0.000	-188.198	-19.696	63.726	13.321	-8.176	3.541	6.302	113.421	0.000	118.225
0.1000	38.210	-4.429	3.582	-0.991	0.480	-0.007	393.443	0.000	-186.973	-19.435	62.696	13.321	-8.243	3.560	6.424	117.029	0.000	121.240
0.1025	38.030	-3.735	3.670	-1.079	0.508	-0.094	487.728	0.000	-244.395	-19.392	63.384	13.454	-8.220	3.550	6.424	115.730	0.000	119.464
0.1050	38.341	-5.303	3.891	-1.214	0.489	-0.217	369.480	0.000	-195.610	-19.394	62.355	13.757	-8.155	3.597	6.250	114.844	0.000	120.167
0.1075	38.518	-6.172	3.627	-1.169	0.488	-0.148	307.533	0.000	-162.798	-19.437	62.015	13.799	-8.131	3.671	6.353	117.180	0.000	120.417
0.1100	38.516	-5.306	3.624	-1.257	0.489	-0.130	354.252	0.000	-206.010	-19.350	62.699	13.846	-8.155	3.597	6.163	112.799	0.000	119.437
0.1125	38.516	-4.959	3.536	-1.213	0.480	-0.094	371.941	0.000	-212.272	-19.394	61.496	13.757	-8.332	3.616	6.319	117.575	0.000	124.733
0.1150	38.342	-5.476	3.759	-1.213	0.489	-0.112	338.662	0.000	-190.404	-19.525	62.011	13.799	-8.156	3.588	6.197	114.737	0.000	120.817
